<svg width="20" height="15" viewBox="0 0 20 15" fill="none" xmlns="http://www.w3.org/2000/svg">
<path d="M12.665 0C11.3028 0.00104572 9.96771 0.381032 8.80908 1.09746C7.65046 1.81389 6.71398 2.83852 6.10439 4.05674C5.37919 3.95098 4.63998 3.99577 3.93286 4.18834C3.22575 4.3809 2.56589 4.7171 1.99445 5.17597C1.42302 5.63483 0.952263 6.20652 0.611549 6.85537C0.270834 7.50423 0.0674706 8.21632 0.0141423 8.94725C-0.0391861 9.67818 0.058665 10.4123 0.301592 11.1037C0.544519 11.7951 0.927311 12.4291 1.42609 12.966C1.92487 13.503 2.52894 13.9314 3.20062 14.2246C3.8723 14.5177 4.59718 14.6693 5.33005 14.67H12.665C14.6104 14.67 16.4761 13.8972 17.8516 12.5216C19.2272 11.146 20 9.28033 20 7.33498C20 5.38962 19.2272 3.52394 17.8516 2.14836C16.4761 0.77279 14.6104 0 12.665 0ZM12.665 13.3363H5.33005C4.26894 13.3363 3.2513 12.9148 2.50099 12.1645C1.75067 11.4142 1.32915 10.3965 1.32915 9.33542C1.32915 8.27432 1.75067 7.25668 2.50099 6.50636C3.2513 5.75605 4.26894 5.33453 5.33005 5.33453C5.42174 5.33453 5.51342 5.33453 5.60428 5.3437C5.42192 5.99173 5.32965 6.66178 5.33005 7.33498C5.33005 7.51183 5.4003 7.68143 5.52535 7.80649C5.65041 7.93154 5.82001 8.00179 5.99686 8.00179C6.17371 8.00179 6.34332 7.93154 6.46837 7.80649C6.59343 7.68143 6.66368 7.51183 6.66368 7.33498C6.66368 6.14802 7.01565 4.98772 7.67509 4.00081C8.33453 3.01389 9.27181 2.24468 10.3684 1.79046C11.465 1.33623 12.6717 1.21738 13.8358 1.44895C15 1.68051 16.0693 2.25208 16.9086 3.09138C17.7479 3.93069 18.3195 5.00003 18.5511 6.16417C18.7826 7.32832 18.6638 8.53499 18.2095 9.63159C17.7553 10.7282 16.9861 11.6655 15.9992 12.3249C15.0123 12.9843 13.852 13.3363 12.665 13.3363Z" fill="#E79E31"/>
</svg>
